<mxfile host="app.diagrams.net" agent="Mozilla/5.0 (Windows NT 10.0; Win64; x64) AppleWebKit/537.36 (KHTML, like Gecko) Chrome/129.0.0.0 Safari/537.36" version="24.7.5">
  <diagram id="C5RBs43oDa-KdzZeNtuy" name="Page-1">
    <mxGraphModel dx="1033" dy="438" grid="1" gridSize="10" guides="1" tooltips="1" connect="1" arrows="1" fold="1" page="1" pageScale="1" pageWidth="827" pageHeight="1169" math="0" shadow="0">
      <root>
        <mxCell id="WIyWlLk6GJQsqaUBKTNV-0" />
        <mxCell id="WIyWlLk6GJQsqaUBKTNV-1" parent="WIyWlLk6GJQsqaUBKTNV-0" />
        <mxCell id="WIyWlLk6GJQsqaUBKTNV-2" value="" style="rounded=0;html=1;jettySize=auto;orthogonalLoop=1;fontSize=11;endArrow=block;endFill=0;endSize=8;strokeWidth=1;shadow=0;labelBackgroundColor=none;edgeStyle=orthogonalEdgeStyle;" parent="WIyWlLk6GJQsqaUBKTNV-1" source="WIyWlLk6GJQsqaUBKTNV-3" target="WIyWlLk6GJQsqaUBKTNV-6" edge="1">
          <mxGeometry relative="1" as="geometry" />
        </mxCell>
        <mxCell id="WIyWlLk6GJQsqaUBKTNV-3" value="Cliente hace una reserva" style="rounded=1;whiteSpace=wrap;html=1;fontSize=12;glass=0;strokeWidth=1;shadow=0;arcSize=50;" parent="WIyWlLk6GJQsqaUBKTNV-1" vertex="1">
          <mxGeometry x="150" y="60" width="120" height="40" as="geometry" />
        </mxCell>
        <mxCell id="WIyWlLk6GJQsqaUBKTNV-5" value="Si" style="edgeStyle=orthogonalEdgeStyle;rounded=0;html=1;jettySize=auto;orthogonalLoop=1;fontSize=11;endArrow=block;endFill=0;endSize=8;strokeWidth=1;shadow=0;labelBackgroundColor=none;" parent="WIyWlLk6GJQsqaUBKTNV-1" source="WIyWlLk6GJQsqaUBKTNV-6" target="WIyWlLk6GJQsqaUBKTNV-7" edge="1">
          <mxGeometry x="0.3846" y="10" relative="1" as="geometry">
            <mxPoint as="offset" />
          </mxGeometry>
        </mxCell>
        <mxCell id="WIyWlLk6GJQsqaUBKTNV-6" value="El cliente reserva por telefono?" style="rhombus;whiteSpace=wrap;html=1;shadow=0;fontFamily=Helvetica;fontSize=12;align=center;strokeWidth=1;spacing=6;spacingTop=-4;" parent="WIyWlLk6GJQsqaUBKTNV-1" vertex="1">
          <mxGeometry x="380" y="25" width="120" height="110" as="geometry" />
        </mxCell>
        <mxCell id="WIyWlLk6GJQsqaUBKTNV-7" value="El empleado toma la reserva manualmente" style="rounded=1;whiteSpace=wrap;html=1;fontSize=12;glass=0;strokeWidth=1;shadow=0;arcSize=26;" parent="WIyWlLk6GJQsqaUBKTNV-1" vertex="1">
          <mxGeometry x="380" y="200" width="120" height="40" as="geometry" />
        </mxCell>
        <mxCell id="fXlcSUUAx1LCF-rNgMwW-0" value="El cliente accede a la plataforma para realizar la reserva" style="rounded=0;whiteSpace=wrap;html=1;" vertex="1" parent="WIyWlLk6GJQsqaUBKTNV-1">
          <mxGeometry x="660" y="50" width="120" height="60" as="geometry" />
        </mxCell>
        <mxCell id="fXlcSUUAx1LCF-rNgMwW-1" value="" style="endArrow=classic;html=1;rounded=0;exitX=0.5;exitY=1;exitDx=0;exitDy=0;entryX=0.5;entryY=0;entryDx=0;entryDy=0;" edge="1" parent="WIyWlLk6GJQsqaUBKTNV-1" source="fXlcSUUAx1LCF-rNgMwW-0" target="fXlcSUUAx1LCF-rNgMwW-2">
          <mxGeometry width="50" height="50" relative="1" as="geometry">
            <mxPoint x="330" y="560" as="sourcePoint" />
            <mxPoint x="210" y="470" as="targetPoint" />
          </mxGeometry>
        </mxCell>
        <mxCell id="fXlcSUUAx1LCF-rNgMwW-2" value="El cliente ingresa los datos de la reserva" style="shape=parallelogram;perimeter=parallelogramPerimeter;whiteSpace=wrap;html=1;fixedSize=1;size=20;" vertex="1" parent="WIyWlLk6GJQsqaUBKTNV-1">
          <mxGeometry x="650" y="190" width="140" height="90" as="geometry" />
        </mxCell>
        <mxCell id="fXlcSUUAx1LCF-rNgMwW-3" value="El sistema verifica la disponibilidad" style="rounded=0;whiteSpace=wrap;html=1;" vertex="1" parent="WIyWlLk6GJQsqaUBKTNV-1">
          <mxGeometry x="650" y="340" width="120" height="60" as="geometry" />
        </mxCell>
        <mxCell id="fXlcSUUAx1LCF-rNgMwW-4" value="" style="endArrow=classic;html=1;rounded=0;exitX=0.423;exitY=1.007;exitDx=0;exitDy=0;exitPerimeter=0;entryX=0.5;entryY=0;entryDx=0;entryDy=0;" edge="1" parent="WIyWlLk6GJQsqaUBKTNV-1" source="fXlcSUUAx1LCF-rNgMwW-2" target="fXlcSUUAx1LCF-rNgMwW-3">
          <mxGeometry width="50" height="50" relative="1" as="geometry">
            <mxPoint x="330" y="760" as="sourcePoint" />
            <mxPoint x="380" y="710" as="targetPoint" />
          </mxGeometry>
        </mxCell>
        <mxCell id="fXlcSUUAx1LCF-rNgMwW-5" value="Base de datos" style="shape=cylinder3;whiteSpace=wrap;html=1;boundedLbl=1;backgroundOutline=1;size=15;" vertex="1" parent="WIyWlLk6GJQsqaUBKTNV-1">
          <mxGeometry x="500" y="330" width="60" height="80" as="geometry" />
        </mxCell>
        <mxCell id="fXlcSUUAx1LCF-rNgMwW-6" value="" style="endArrow=classic;html=1;rounded=0;exitX=0;exitY=0.5;exitDx=0;exitDy=0;entryX=1;entryY=0.5;entryDx=0;entryDy=0;entryPerimeter=0;" edge="1" parent="WIyWlLk6GJQsqaUBKTNV-1" source="fXlcSUUAx1LCF-rNgMwW-3" target="fXlcSUUAx1LCF-rNgMwW-5">
          <mxGeometry width="50" height="50" relative="1" as="geometry">
            <mxPoint x="330" y="760" as="sourcePoint" />
            <mxPoint x="380" y="710" as="targetPoint" />
          </mxGeometry>
        </mxCell>
        <mxCell id="fXlcSUUAx1LCF-rNgMwW-7" value="" style="endArrow=classic;html=1;rounded=0;exitX=1;exitY=0.5;exitDx=0;exitDy=0;entryX=0;entryY=0.5;entryDx=0;entryDy=0;" edge="1" parent="WIyWlLk6GJQsqaUBKTNV-1" source="WIyWlLk6GJQsqaUBKTNV-6" target="fXlcSUUAx1LCF-rNgMwW-0">
          <mxGeometry width="50" height="50" relative="1" as="geometry">
            <mxPoint x="540" y="90" as="sourcePoint" />
            <mxPoint x="590" y="40" as="targetPoint" />
          </mxGeometry>
        </mxCell>
        <mxCell id="fXlcSUUAx1LCF-rNgMwW-8" value="Hay disponibilidad?" style="rhombus;whiteSpace=wrap;html=1;" vertex="1" parent="WIyWlLk6GJQsqaUBKTNV-1">
          <mxGeometry x="310" y="325" width="103.5" height="90" as="geometry" />
        </mxCell>
        <mxCell id="fXlcSUUAx1LCF-rNgMwW-9" value="" style="endArrow=classic;html=1;rounded=0;exitX=0;exitY=0.5;exitDx=0;exitDy=0;exitPerimeter=0;entryX=1;entryY=0.5;entryDx=0;entryDy=0;" edge="1" parent="WIyWlLk6GJQsqaUBKTNV-1" source="fXlcSUUAx1LCF-rNgMwW-5" target="fXlcSUUAx1LCF-rNgMwW-8">
          <mxGeometry width="50" height="50" relative="1" as="geometry">
            <mxPoint x="730" y="360" as="sourcePoint" />
            <mxPoint x="780" y="310" as="targetPoint" />
          </mxGeometry>
        </mxCell>
        <mxCell id="fXlcSUUAx1LCF-rNgMwW-11" value="" style="endArrow=classic;html=1;rounded=0;exitX=0.5;exitY=1;exitDx=0;exitDy=0;entryX=1;entryY=0.5;entryDx=0;entryDy=0;" edge="1" parent="WIyWlLk6GJQsqaUBKTNV-1" source="fXlcSUUAx1LCF-rNgMwW-8" target="fXlcSUUAx1LCF-rNgMwW-28">
          <mxGeometry width="50" height="50" relative="1" as="geometry">
            <mxPoint x="363.5" y="470" as="sourcePoint" />
            <mxPoint x="310" y="470.0000000000002" as="targetPoint" />
            <Array as="points">
              <mxPoint x="362" y="460" />
            </Array>
          </mxGeometry>
        </mxCell>
        <mxCell id="fXlcSUUAx1LCF-rNgMwW-15" value="No" style="text;html=1;align=center;verticalAlign=middle;whiteSpace=wrap;rounded=0;" vertex="1" parent="WIyWlLk6GJQsqaUBKTNV-1">
          <mxGeometry x="490" y="50" width="60" height="30" as="geometry" />
        </mxCell>
        <mxCell id="fXlcSUUAx1LCF-rNgMwW-17" value="No" style="text;html=1;align=center;verticalAlign=middle;whiteSpace=wrap;rounded=0;" vertex="1" parent="WIyWlLk6GJQsqaUBKTNV-1">
          <mxGeometry x="270" y="340" width="60" height="30" as="geometry" />
        </mxCell>
        <mxCell id="fXlcSUUAx1LCF-rNgMwW-18" value="" style="endArrow=classic;html=1;rounded=0;exitX=0;exitY=0.5;exitDx=0;exitDy=0;" edge="1" parent="WIyWlLk6GJQsqaUBKTNV-1" source="fXlcSUUAx1LCF-rNgMwW-8" target="fXlcSUUAx1LCF-rNgMwW-19">
          <mxGeometry width="50" height="50" relative="1" as="geometry">
            <mxPoint x="270" y="380" as="sourcePoint" />
            <mxPoint x="260" y="360" as="targetPoint" />
          </mxGeometry>
        </mxCell>
        <mxCell id="fXlcSUUAx1LCF-rNgMwW-19" value="El sistema sugiere fechas u horas alternativas" style="rounded=1;whiteSpace=wrap;html=1;arcSize=0;" vertex="1" parent="WIyWlLk6GJQsqaUBKTNV-1">
          <mxGeometry x="140" y="340" width="120" height="60" as="geometry" />
        </mxCell>
        <mxCell id="fXlcSUUAx1LCF-rNgMwW-21" value="Si" style="text;html=1;align=center;verticalAlign=middle;whiteSpace=wrap;rounded=0;" vertex="1" parent="WIyWlLk6GJQsqaUBKTNV-1">
          <mxGeometry x="330" y="415" width="20" height="30" as="geometry" />
        </mxCell>
        <mxCell id="fXlcSUUAx1LCF-rNgMwW-24" value="" style="endArrow=classic;html=1;rounded=0;exitX=0.449;exitY=0.956;exitDx=0;exitDy=0;exitPerimeter=0;entryX=0.5;entryY=0;entryDx=0;entryDy=0;" edge="1" parent="WIyWlLk6GJQsqaUBKTNV-1" source="fXlcSUUAx1LCF-rNgMwW-28" target="fXlcSUUAx1LCF-rNgMwW-26">
          <mxGeometry width="50" height="50" relative="1" as="geometry">
            <mxPoint x="250" y="500.0000000000002" as="sourcePoint" />
            <mxPoint x="192" y="550" as="targetPoint" />
          </mxGeometry>
        </mxCell>
        <mxCell id="fXlcSUUAx1LCF-rNgMwW-26" value="El sistema envía una confirmación automática de la reserva" style="rounded=1;whiteSpace=wrap;html=1;arcSize=0;" vertex="1" parent="WIyWlLk6GJQsqaUBKTNV-1">
          <mxGeometry x="125" y="540" width="125" height="70" as="geometry" />
        </mxCell>
        <mxCell id="fXlcSUUAx1LCF-rNgMwW-28" value="&lt;br&gt;&lt;span style=&quot;color: rgb(0, 0, 0); font-family: Helvetica; font-size: 12px; font-style: normal; font-variant-ligatures: normal; font-variant-caps: normal; font-weight: 400; letter-spacing: normal; orphans: 2; text-align: center; text-indent: 0px; text-transform: none; widows: 2; word-spacing: 0px; -webkit-text-stroke-width: 0px; white-space: normal; background-color: rgb(251, 251, 251); text-decoration-thickness: initial; text-decoration-style: initial; text-decoration-color: initial; display: inline !important; float: none;&quot;&gt;El sistema registra&amp;nbsp;&lt;/span&gt;&lt;div&gt;&lt;span style=&quot;color: rgb(0, 0, 0); font-family: Helvetica; font-size: 12px; font-style: normal; font-variant-ligatures: normal; font-variant-caps: normal; font-weight: 400; letter-spacing: normal; orphans: 2; text-align: center; text-indent: 0px; text-transform: none; widows: 2; word-spacing: 0px; -webkit-text-stroke-width: 0px; white-space: normal; background-color: rgb(251, 251, 251); text-decoration-thickness: initial; text-decoration-style: initial; text-decoration-color: initial; display: inline !important; float: none;&quot;&gt;la reserva&lt;/span&gt;&lt;br&gt;&lt;br&gt;&lt;/div&gt;" style="shape=parallelogram;perimeter=parallelogramPerimeter;whiteSpace=wrap;html=1;fixedSize=1;" vertex="1" parent="WIyWlLk6GJQsqaUBKTNV-1">
          <mxGeometry x="125" y="430" width="150" height="60" as="geometry" />
        </mxCell>
        <mxCell id="fXlcSUUAx1LCF-rNgMwW-29" value="" style="endArrow=classic;html=1;rounded=0;exitX=1;exitY=0.5;exitDx=0;exitDy=0;" edge="1" parent="WIyWlLk6GJQsqaUBKTNV-1" source="fXlcSUUAx1LCF-rNgMwW-26" target="fXlcSUUAx1LCF-rNgMwW-30">
          <mxGeometry width="50" height="50" relative="1" as="geometry">
            <mxPoint x="280" y="585" as="sourcePoint" />
            <mxPoint x="360" y="575" as="targetPoint" />
          </mxGeometry>
        </mxCell>
        <mxCell id="fXlcSUUAx1LCF-rNgMwW-30" value="El sistema notifica al personal de restaurante" style="rounded=0;whiteSpace=wrap;html=1;" vertex="1" parent="WIyWlLk6GJQsqaUBKTNV-1">
          <mxGeometry x="354" y="554.9999999999998" width="120" height="60" as="geometry" />
        </mxCell>
        <mxCell id="fXlcSUUAx1LCF-rNgMwW-33" value="" style="endArrow=classic;html=1;rounded=0;exitX=1;exitY=0.5;exitDx=0;exitDy=0;entryX=0;entryY=0.5;entryDx=0;entryDy=0;" edge="1" parent="WIyWlLk6GJQsqaUBKTNV-1" source="fXlcSUUAx1LCF-rNgMwW-30" target="fXlcSUUAx1LCF-rNgMwW-34">
          <mxGeometry width="50" height="50" relative="1" as="geometry">
            <mxPoint x="490" y="585" as="sourcePoint" />
            <mxPoint x="570" y="582.4999999999998" as="targetPoint" />
          </mxGeometry>
        </mxCell>
        <mxCell id="fXlcSUUAx1LCF-rNgMwW-34" value="Fin" style="rounded=1;whiteSpace=wrap;html=1;arcSize=50;" vertex="1" parent="WIyWlLk6GJQsqaUBKTNV-1">
          <mxGeometry x="570" y="555" width="120" height="60" as="geometry" />
        </mxCell>
        <mxCell id="fXlcSUUAx1LCF-rNgMwW-35" value="El mesero toma el pedido" style="rounded=1;whiteSpace=wrap;html=1;arcSize=50;" vertex="1" parent="WIyWlLk6GJQsqaUBKTNV-1">
          <mxGeometry x="90" y="1200" width="120" height="60" as="geometry" />
        </mxCell>
        <mxCell id="fXlcSUUAx1LCF-rNgMwW-36" value="" style="endArrow=classic;html=1;rounded=0;exitX=1;exitY=0.5;exitDx=0;exitDy=0;entryX=0;entryY=0.5;entryDx=0;entryDy=0;" edge="1" parent="WIyWlLk6GJQsqaUBKTNV-1" source="fXlcSUUAx1LCF-rNgMwW-35" target="fXlcSUUAx1LCF-rNgMwW-37">
          <mxGeometry width="50" height="50" relative="1" as="geometry">
            <mxPoint x="240" y="1230" as="sourcePoint" />
            <mxPoint x="300" y="1230" as="targetPoint" />
          </mxGeometry>
        </mxCell>
        <mxCell id="fXlcSUUAx1LCF-rNgMwW-37" value="El mesero ingresa los detalles del pedido" style="shape=parallelogram;perimeter=parallelogramPerimeter;whiteSpace=wrap;html=1;fixedSize=1;" vertex="1" parent="WIyWlLk6GJQsqaUBKTNV-1">
          <mxGeometry x="320" y="1200" width="150" height="60" as="geometry" />
        </mxCell>
        <mxCell id="fXlcSUUAx1LCF-rNgMwW-39" value="El sistema verifica que el pedido este completo" style="rounded=0;whiteSpace=wrap;html=1;" vertex="1" parent="WIyWlLk6GJQsqaUBKTNV-1">
          <mxGeometry x="520" y="1200" width="120" height="60" as="geometry" />
        </mxCell>
        <mxCell id="fXlcSUUAx1LCF-rNgMwW-40" value="" style="endArrow=classic;html=1;rounded=0;exitX=1;exitY=0.5;exitDx=0;exitDy=0;entryX=0;entryY=0.5;entryDx=0;entryDy=0;" edge="1" parent="WIyWlLk6GJQsqaUBKTNV-1" source="fXlcSUUAx1LCF-rNgMwW-37" target="fXlcSUUAx1LCF-rNgMwW-39">
          <mxGeometry width="50" height="50" relative="1" as="geometry">
            <mxPoint x="460" y="1240" as="sourcePoint" />
            <mxPoint x="510" y="1190" as="targetPoint" />
          </mxGeometry>
        </mxCell>
        <mxCell id="fXlcSUUAx1LCF-rNgMwW-41" value="Pedido completo y verificado?" style="rhombus;whiteSpace=wrap;html=1;" vertex="1" parent="WIyWlLk6GJQsqaUBKTNV-1">
          <mxGeometry x="700" y="1180" width="130" height="120" as="geometry" />
        </mxCell>
        <mxCell id="fXlcSUUAx1LCF-rNgMwW-42" value="" style="endArrow=classic;html=1;rounded=0;exitX=1;exitY=0.5;exitDx=0;exitDy=0;entryX=0;entryY=0.5;entryDx=0;entryDy=0;" edge="1" parent="WIyWlLk6GJQsqaUBKTNV-1" source="fXlcSUUAx1LCF-rNgMwW-39" target="fXlcSUUAx1LCF-rNgMwW-41">
          <mxGeometry width="50" height="50" relative="1" as="geometry">
            <mxPoint x="660" y="1230" as="sourcePoint" />
            <mxPoint x="710" y="1180" as="targetPoint" />
          </mxGeometry>
        </mxCell>
        <mxCell id="fXlcSUUAx1LCF-rNgMwW-43" value="" style="endArrow=classic;html=1;rounded=0;exitX=0.5;exitY=1;exitDx=0;exitDy=0;entryX=0.5;entryY=0;entryDx=0;entryDy=0;" edge="1" parent="WIyWlLk6GJQsqaUBKTNV-1" source="fXlcSUUAx1LCF-rNgMwW-41" target="fXlcSUUAx1LCF-rNgMwW-48">
          <mxGeometry width="50" height="50" relative="1" as="geometry">
            <mxPoint x="770" y="1370" as="sourcePoint" />
            <mxPoint x="765" y="1380" as="targetPoint" />
          </mxGeometry>
        </mxCell>
        <mxCell id="fXlcSUUAx1LCF-rNgMwW-44" value="" style="endArrow=classic;html=1;rounded=0;entryX=0.401;entryY=1.017;entryDx=0;entryDy=0;entryPerimeter=0;exitX=0.5;exitY=1;exitDx=0;exitDy=0;" edge="1" parent="WIyWlLk6GJQsqaUBKTNV-1" source="fXlcSUUAx1LCF-rNgMwW-41" target="fXlcSUUAx1LCF-rNgMwW-37">
          <mxGeometry width="50" height="50" relative="1" as="geometry">
            <mxPoint x="720" y="1330" as="sourcePoint" />
            <mxPoint x="640" y="1470" as="targetPoint" />
            <Array as="points">
              <mxPoint x="720" y="1330" />
              <mxPoint x="380" y="1330" />
            </Array>
          </mxGeometry>
        </mxCell>
        <mxCell id="fXlcSUUAx1LCF-rNgMwW-45" value="No" style="text;html=1;align=center;verticalAlign=middle;whiteSpace=wrap;rounded=0;" vertex="1" parent="WIyWlLk6GJQsqaUBKTNV-1">
          <mxGeometry x="710" y="1300" width="30" height="20" as="geometry" />
        </mxCell>
        <mxCell id="fXlcSUUAx1LCF-rNgMwW-47" value="Si" style="text;html=1;align=center;verticalAlign=middle;whiteSpace=wrap;rounded=0;" vertex="1" parent="WIyWlLk6GJQsqaUBKTNV-1">
          <mxGeometry x="770" y="1310" width="10" height="30" as="geometry" />
        </mxCell>
        <mxCell id="fXlcSUUAx1LCF-rNgMwW-48" value="El pedido es enviado a la cocina y lo notifica" style="rounded=1;whiteSpace=wrap;html=1;arcSize=0;" vertex="1" parent="WIyWlLk6GJQsqaUBKTNV-1">
          <mxGeometry x="705" y="1380" width="125" height="40" as="geometry" />
        </mxCell>
        <mxCell id="fXlcSUUAx1LCF-rNgMwW-49" value="" style="endArrow=classic;html=1;rounded=0;exitX=0.5;exitY=1;exitDx=0;exitDy=0;entryX=0.5;entryY=0;entryDx=0;entryDy=0;" edge="1" parent="WIyWlLk6GJQsqaUBKTNV-1" source="fXlcSUUAx1LCF-rNgMwW-48" target="fXlcSUUAx1LCF-rNgMwW-50">
          <mxGeometry width="50" height="50" relative="1" as="geometry">
            <mxPoint x="590" y="1520" as="sourcePoint" />
            <mxPoint x="768" y="1460" as="targetPoint" />
          </mxGeometry>
        </mxCell>
        <mxCell id="fXlcSUUAx1LCF-rNgMwW-50" value="El cliente solicita&amp;nbsp;&lt;div&gt;una modificación o cancelación?&lt;/div&gt;" style="rhombus;whiteSpace=wrap;html=1;" vertex="1" parent="WIyWlLk6GJQsqaUBKTNV-1">
          <mxGeometry x="680" y="1470" width="160" height="130" as="geometry" />
        </mxCell>
        <mxCell id="fXlcSUUAx1LCF-rNgMwW-51" value="El mesero actualiza el el pedido&amp;nbsp; la cocina recibe una notificación de los cambios" style="rounded=1;whiteSpace=wrap;html=1;arcSize=0;" vertex="1" parent="WIyWlLk6GJQsqaUBKTNV-1">
          <mxGeometry x="470" y="1497.5" width="130" height="75" as="geometry" />
        </mxCell>
        <mxCell id="fXlcSUUAx1LCF-rNgMwW-59" style="edgeStyle=orthogonalEdgeStyle;rounded=0;orthogonalLoop=1;jettySize=auto;html=1;exitX=0;exitY=0.5;exitDx=0;exitDy=0;entryX=1;entryY=0.5;entryDx=0;entryDy=0;" edge="1" parent="WIyWlLk6GJQsqaUBKTNV-1" source="fXlcSUUAx1LCF-rNgMwW-52" target="fXlcSUUAx1LCF-rNgMwW-60">
          <mxGeometry relative="1" as="geometry">
            <mxPoint x="630" y="1724.3529411764707" as="targetPoint" />
          </mxGeometry>
        </mxCell>
        <mxCell id="fXlcSUUAx1LCF-rNgMwW-52" value="El pedido continua en preparación" style="rounded=1;whiteSpace=wrap;html=1;arcSize=0;" vertex="1" parent="WIyWlLk6GJQsqaUBKTNV-1">
          <mxGeometry x="700" y="1694" width="120" height="60" as="geometry" />
        </mxCell>
        <mxCell id="fXlcSUUAx1LCF-rNgMwW-53" value="" style="endArrow=classic;html=1;rounded=0;exitX=0;exitY=0.5;exitDx=0;exitDy=0;entryX=1;entryY=0.5;entryDx=0;entryDy=0;" edge="1" parent="WIyWlLk6GJQsqaUBKTNV-1" source="fXlcSUUAx1LCF-rNgMwW-50" target="fXlcSUUAx1LCF-rNgMwW-51">
          <mxGeometry width="50" height="50" relative="1" as="geometry">
            <mxPoint x="590" y="1520" as="sourcePoint" />
            <mxPoint x="640" y="1470" as="targetPoint" />
          </mxGeometry>
        </mxCell>
        <mxCell id="fXlcSUUAx1LCF-rNgMwW-54" value="" style="endArrow=classic;html=1;rounded=0;exitX=0.5;exitY=1;exitDx=0;exitDy=0;entryX=0.5;entryY=0;entryDx=0;entryDy=0;" edge="1" parent="WIyWlLk6GJQsqaUBKTNV-1" source="fXlcSUUAx1LCF-rNgMwW-50" target="fXlcSUUAx1LCF-rNgMwW-52">
          <mxGeometry width="50" height="50" relative="1" as="geometry">
            <mxPoint x="710" y="1680" as="sourcePoint" />
            <mxPoint x="760" y="1630" as="targetPoint" />
          </mxGeometry>
        </mxCell>
        <mxCell id="fXlcSUUAx1LCF-rNgMwW-55" value="No" style="text;html=1;align=center;verticalAlign=middle;whiteSpace=wrap;rounded=0;" vertex="1" parent="WIyWlLk6GJQsqaUBKTNV-1">
          <mxGeometry x="730" y="1610" width="20" height="30" as="geometry" />
        </mxCell>
        <mxCell id="fXlcSUUAx1LCF-rNgMwW-56" value="Si" style="text;html=1;align=center;verticalAlign=middle;whiteSpace=wrap;rounded=0;" vertex="1" parent="WIyWlLk6GJQsqaUBKTNV-1">
          <mxGeometry x="670" y="1505" width="10" height="20" as="geometry" />
        </mxCell>
        <mxCell id="fXlcSUUAx1LCF-rNgMwW-61" style="edgeStyle=orthogonalEdgeStyle;rounded=0;orthogonalLoop=1;jettySize=auto;html=1;exitX=0;exitY=0.5;exitDx=0;exitDy=0;" edge="1" parent="WIyWlLk6GJQsqaUBKTNV-1" source="fXlcSUUAx1LCF-rNgMwW-60" target="fXlcSUUAx1LCF-rNgMwW-62">
          <mxGeometry relative="1" as="geometry">
            <mxPoint x="430" y="1724.3529411764707" as="targetPoint" />
          </mxGeometry>
        </mxCell>
        <mxCell id="fXlcSUUAx1LCF-rNgMwW-60" value="Se notifica al mesero cuando el pedido esta listo" style="rounded=1;whiteSpace=wrap;html=1;arcSize=0;" vertex="1" parent="WIyWlLk6GJQsqaUBKTNV-1">
          <mxGeometry x="500" y="1694" width="130" height="60" as="geometry" />
        </mxCell>
        <mxCell id="fXlcSUUAx1LCF-rNgMwW-64" style="edgeStyle=orthogonalEdgeStyle;rounded=0;orthogonalLoop=1;jettySize=auto;html=1;exitX=0;exitY=0.5;exitDx=0;exitDy=0;entryX=1;entryY=0.5;entryDx=0;entryDy=0;" edge="1" parent="WIyWlLk6GJQsqaUBKTNV-1" source="fXlcSUUAx1LCF-rNgMwW-62" target="fXlcSUUAx1LCF-rNgMwW-63">
          <mxGeometry relative="1" as="geometry" />
        </mxCell>
        <mxCell id="fXlcSUUAx1LCF-rNgMwW-62" value="Se actualiza el estado del pedido como entregado" style="rounded=0;whiteSpace=wrap;html=1;" vertex="1" parent="WIyWlLk6GJQsqaUBKTNV-1">
          <mxGeometry x="301.75" y="1694.3529411764707" width="120" height="60" as="geometry" />
        </mxCell>
        <mxCell id="fXlcSUUAx1LCF-rNgMwW-63" value="Fin" style="rounded=1;whiteSpace=wrap;html=1;arcSize=50;" vertex="1" parent="WIyWlLk6GJQsqaUBKTNV-1">
          <mxGeometry x="125" y="1694.35" width="120" height="60" as="geometry" />
        </mxCell>
      </root>
    </mxGraphModel>
  </diagram>
</mxfile>
